<?xml version="1.0" encoding="UTF-8" ?>
<svg xmlns="http://www.w3.org/2000/svg" xmlns:xlink="http://www.w3.org/1999/xlink" height="100" width="100">
  <g id="qrcode:https://pollev.com/drcolling">
    <rect x="0" y="0" width="100px" height="100px" style="fill:white;"/>
    <rect x="0.00" y="0.00" width="4.00" height="4.00" stroke="black" stroke-width="0.2" stroke-linecap="butt" fill="black"/>
    <rect x="4.00" y="0.00" width="4.00" height="4.00" stroke="black" stroke-width="0.2" stroke-linecap="butt" fill="black"/>
    <rect x="8.00" y="0.00" width="4.00" height="4.00" stroke="black" stroke-width="0.2" stroke-linecap="butt" fill="black"/>
    <rect x="12.00" y="0.00" width="4.00" height="4.00" stroke="black" stroke-width="0.2" stroke-linecap="butt" fill="black"/>
    <rect x="16.00" y="0.00" width="4.00" height="4.00" stroke="black" stroke-width="0.2" stroke-linecap="butt" fill="black"/>
    <rect x="20.00" y="0.00" width="4.00" height="4.00" stroke="black" stroke-width="0.2" stroke-linecap="butt" fill="black"/>
    <rect x="24.00" y="0.00" width="4.00" height="4.00" stroke="black" stroke-width="0.2" stroke-linecap="butt" fill="black"/>
    <rect x="32.00" y="0.00" width="4.00" height="4.00" stroke="black" stroke-width="0.2" stroke-linecap="butt" fill="black"/>
    <rect x="36.00" y="0.00" width="4.00" height="4.00" stroke="black" stroke-width="0.2" stroke-linecap="butt" fill="black"/>
    <rect x="44.00" y="0.00" width="4.00" height="4.00" stroke="black" stroke-width="0.2" stroke-linecap="butt" fill="black"/>
    <rect x="56.00" y="0.00" width="4.00" height="4.00" stroke="black" stroke-width="0.2" stroke-linecap="butt" fill="black"/>
    <rect x="64.00" y="0.00" width="4.00" height="4.00" stroke="black" stroke-width="0.2" stroke-linecap="butt" fill="black"/>
    <rect x="72.00" y="0.00" width="4.00" height="4.00" stroke="black" stroke-width="0.2" stroke-linecap="butt" fill="black"/>
    <rect x="76.00" y="0.00" width="4.00" height="4.00" stroke="black" stroke-width="0.2" stroke-linecap="butt" fill="black"/>
    <rect x="80.00" y="0.00" width="4.00" height="4.00" stroke="black" stroke-width="0.2" stroke-linecap="butt" fill="black"/>
    <rect x="84.00" y="0.00" width="4.00" height="4.00" stroke="black" stroke-width="0.2" stroke-linecap="butt" fill="black"/>
    <rect x="88.00" y="0.00" width="4.00" height="4.00" stroke="black" stroke-width="0.2" stroke-linecap="butt" fill="black"/>
    <rect x="92.00" y="0.00" width="4.00" height="4.00" stroke="black" stroke-width="0.2" stroke-linecap="butt" fill="black"/>
    <rect x="96.00" y="0.00" width="4.00" height="4.00" stroke="black" stroke-width="0.2" stroke-linecap="butt" fill="black"/>
    <rect x="0.00" y="4.00" width="4.00" height="4.00" stroke="black" stroke-width="0.2" stroke-linecap="butt" fill="black"/>
    <rect x="24.00" y="4.00" width="4.00" height="4.00" stroke="black" stroke-width="0.2" stroke-linecap="butt" fill="black"/>
    <rect x="32.00" y="4.00" width="4.00" height="4.00" stroke="black" stroke-width="0.2" stroke-linecap="butt" fill="black"/>
    <rect x="40.00" y="4.00" width="4.00" height="4.00" stroke="black" stroke-width="0.2" stroke-linecap="butt" fill="black"/>
    <rect x="48.00" y="4.00" width="4.00" height="4.00" stroke="black" stroke-width="0.2" stroke-linecap="butt" fill="black"/>
    <rect x="56.00" y="4.00" width="4.00" height="4.00" stroke="black" stroke-width="0.2" stroke-linecap="butt" fill="black"/>
    <rect x="64.00" y="4.00" width="4.00" height="4.00" stroke="black" stroke-width="0.2" stroke-linecap="butt" fill="black"/>
    <rect x="72.00" y="4.00" width="4.00" height="4.00" stroke="black" stroke-width="0.2" stroke-linecap="butt" fill="black"/>
    <rect x="96.00" y="4.00" width="4.00" height="4.00" stroke="black" stroke-width="0.2" stroke-linecap="butt" fill="black"/>
    <rect x="0.00" y="8.00" width="4.00" height="4.00" stroke="black" stroke-width="0.2" stroke-linecap="butt" fill="black"/>
    <rect x="8.00" y="8.00" width="4.00" height="4.00" stroke="black" stroke-width="0.2" stroke-linecap="butt" fill="black"/>
    <rect x="12.00" y="8.00" width="4.00" height="4.00" stroke="black" stroke-width="0.2" stroke-linecap="butt" fill="black"/>
    <rect x="16.00" y="8.00" width="4.00" height="4.00" stroke="black" stroke-width="0.2" stroke-linecap="butt" fill="black"/>
    <rect x="24.00" y="8.00" width="4.00" height="4.00" stroke="black" stroke-width="0.2" stroke-linecap="butt" fill="black"/>
    <rect x="32.00" y="8.00" width="4.00" height="4.00" stroke="black" stroke-width="0.2" stroke-linecap="butt" fill="black"/>
    <rect x="36.00" y="8.00" width="4.00" height="4.00" stroke="black" stroke-width="0.2" stroke-linecap="butt" fill="black"/>
    <rect x="44.00" y="8.00" width="4.00" height="4.00" stroke="black" stroke-width="0.2" stroke-linecap="butt" fill="black"/>
    <rect x="64.00" y="8.00" width="4.00" height="4.00" stroke="black" stroke-width="0.2" stroke-linecap="butt" fill="black"/>
    <rect x="72.00" y="8.00" width="4.00" height="4.00" stroke="black" stroke-width="0.2" stroke-linecap="butt" fill="black"/>
    <rect x="80.00" y="8.00" width="4.00" height="4.00" stroke="black" stroke-width="0.2" stroke-linecap="butt" fill="black"/>
    <rect x="84.00" y="8.00" width="4.00" height="4.00" stroke="black" stroke-width="0.2" stroke-linecap="butt" fill="black"/>
    <rect x="88.00" y="8.00" width="4.00" height="4.00" stroke="black" stroke-width="0.2" stroke-linecap="butt" fill="black"/>
    <rect x="96.00" y="8.00" width="4.00" height="4.00" stroke="black" stroke-width="0.2" stroke-linecap="butt" fill="black"/>
    <rect x="0.00" y="12.00" width="4.00" height="4.00" stroke="black" stroke-width="0.2" stroke-linecap="butt" fill="black"/>
    <rect x="8.00" y="12.00" width="4.00" height="4.00" stroke="black" stroke-width="0.2" stroke-linecap="butt" fill="black"/>
    <rect x="12.00" y="12.00" width="4.00" height="4.00" stroke="black" stroke-width="0.2" stroke-linecap="butt" fill="black"/>
    <rect x="16.00" y="12.00" width="4.00" height="4.00" stroke="black" stroke-width="0.2" stroke-linecap="butt" fill="black"/>
    <rect x="24.00" y="12.00" width="4.00" height="4.00" stroke="black" stroke-width="0.2" stroke-linecap="butt" fill="black"/>
    <rect x="36.00" y="12.00" width="4.00" height="4.00" stroke="black" stroke-width="0.2" stroke-linecap="butt" fill="black"/>
    <rect x="48.00" y="12.00" width="4.00" height="4.00" stroke="black" stroke-width="0.2" stroke-linecap="butt" fill="black"/>
    <rect x="72.00" y="12.00" width="4.00" height="4.00" stroke="black" stroke-width="0.2" stroke-linecap="butt" fill="black"/>
    <rect x="80.00" y="12.00" width="4.00" height="4.00" stroke="black" stroke-width="0.2" stroke-linecap="butt" fill="black"/>
    <rect x="84.00" y="12.00" width="4.00" height="4.00" stroke="black" stroke-width="0.2" stroke-linecap="butt" fill="black"/>
    <rect x="88.00" y="12.00" width="4.00" height="4.00" stroke="black" stroke-width="0.2" stroke-linecap="butt" fill="black"/>
    <rect x="96.00" y="12.00" width="4.00" height="4.00" stroke="black" stroke-width="0.2" stroke-linecap="butt" fill="black"/>
    <rect x="0.00" y="16.00" width="4.00" height="4.00" stroke="black" stroke-width="0.2" stroke-linecap="butt" fill="black"/>
    <rect x="8.00" y="16.00" width="4.00" height="4.00" stroke="black" stroke-width="0.2" stroke-linecap="butt" fill="black"/>
    <rect x="12.00" y="16.00" width="4.00" height="4.00" stroke="black" stroke-width="0.2" stroke-linecap="butt" fill="black"/>
    <rect x="16.00" y="16.00" width="4.00" height="4.00" stroke="black" stroke-width="0.2" stroke-linecap="butt" fill="black"/>
    <rect x="24.00" y="16.00" width="4.00" height="4.00" stroke="black" stroke-width="0.2" stroke-linecap="butt" fill="black"/>
    <rect x="36.00" y="16.00" width="4.00" height="4.00" stroke="black" stroke-width="0.2" stroke-linecap="butt" fill="black"/>
    <rect x="40.00" y="16.00" width="4.00" height="4.00" stroke="black" stroke-width="0.2" stroke-linecap="butt" fill="black"/>
    <rect x="48.00" y="16.00" width="4.00" height="4.00" stroke="black" stroke-width="0.2" stroke-linecap="butt" fill="black"/>
    <rect x="56.00" y="16.00" width="4.00" height="4.00" stroke="black" stroke-width="0.2" stroke-linecap="butt" fill="black"/>
    <rect x="60.00" y="16.00" width="4.00" height="4.00" stroke="black" stroke-width="0.2" stroke-linecap="butt" fill="black"/>
    <rect x="72.00" y="16.00" width="4.00" height="4.00" stroke="black" stroke-width="0.2" stroke-linecap="butt" fill="black"/>
    <rect x="80.00" y="16.00" width="4.00" height="4.00" stroke="black" stroke-width="0.2" stroke-linecap="butt" fill="black"/>
    <rect x="84.00" y="16.00" width="4.00" height="4.00" stroke="black" stroke-width="0.2" stroke-linecap="butt" fill="black"/>
    <rect x="88.00" y="16.00" width="4.00" height="4.00" stroke="black" stroke-width="0.2" stroke-linecap="butt" fill="black"/>
    <rect x="96.00" y="16.00" width="4.00" height="4.00" stroke="black" stroke-width="0.2" stroke-linecap="butt" fill="black"/>
    <rect x="0.00" y="20.00" width="4.00" height="4.00" stroke="black" stroke-width="0.2" stroke-linecap="butt" fill="black"/>
    <rect x="24.00" y="20.00" width="4.00" height="4.00" stroke="black" stroke-width="0.2" stroke-linecap="butt" fill="black"/>
    <rect x="32.00" y="20.00" width="4.00" height="4.00" stroke="black" stroke-width="0.2" stroke-linecap="butt" fill="black"/>
    <rect x="72.00" y="20.00" width="4.00" height="4.00" stroke="black" stroke-width="0.2" stroke-linecap="butt" fill="black"/>
    <rect x="96.00" y="20.00" width="4.00" height="4.00" stroke="black" stroke-width="0.2" stroke-linecap="butt" fill="black"/>
    <rect x="0.00" y="24.00" width="4.00" height="4.00" stroke="black" stroke-width="0.2" stroke-linecap="butt" fill="black"/>
    <rect x="4.00" y="24.00" width="4.00" height="4.00" stroke="black" stroke-width="0.2" stroke-linecap="butt" fill="black"/>
    <rect x="8.00" y="24.00" width="4.00" height="4.00" stroke="black" stroke-width="0.2" stroke-linecap="butt" fill="black"/>
    <rect x="12.00" y="24.00" width="4.00" height="4.00" stroke="black" stroke-width="0.2" stroke-linecap="butt" fill="black"/>
    <rect x="16.00" y="24.00" width="4.00" height="4.00" stroke="black" stroke-width="0.2" stroke-linecap="butt" fill="black"/>
    <rect x="20.00" y="24.00" width="4.00" height="4.00" stroke="black" stroke-width="0.2" stroke-linecap="butt" fill="black"/>
    <rect x="24.00" y="24.00" width="4.00" height="4.00" stroke="black" stroke-width="0.2" stroke-linecap="butt" fill="black"/>
    <rect x="32.00" y="24.00" width="4.00" height="4.00" stroke="black" stroke-width="0.2" stroke-linecap="butt" fill="black"/>
    <rect x="40.00" y="24.00" width="4.00" height="4.00" stroke="black" stroke-width="0.2" stroke-linecap="butt" fill="black"/>
    <rect x="48.00" y="24.00" width="4.00" height="4.00" stroke="black" stroke-width="0.2" stroke-linecap="butt" fill="black"/>
    <rect x="56.00" y="24.00" width="4.00" height="4.00" stroke="black" stroke-width="0.2" stroke-linecap="butt" fill="black"/>
    <rect x="64.00" y="24.00" width="4.00" height="4.00" stroke="black" stroke-width="0.2" stroke-linecap="butt" fill="black"/>
    <rect x="72.00" y="24.00" width="4.00" height="4.00" stroke="black" stroke-width="0.2" stroke-linecap="butt" fill="black"/>
    <rect x="76.00" y="24.00" width="4.00" height="4.00" stroke="black" stroke-width="0.2" stroke-linecap="butt" fill="black"/>
    <rect x="80.00" y="24.00" width="4.00" height="4.00" stroke="black" stroke-width="0.2" stroke-linecap="butt" fill="black"/>
    <rect x="84.00" y="24.00" width="4.00" height="4.00" stroke="black" stroke-width="0.2" stroke-linecap="butt" fill="black"/>
    <rect x="88.00" y="24.00" width="4.00" height="4.00" stroke="black" stroke-width="0.2" stroke-linecap="butt" fill="black"/>
    <rect x="92.00" y="24.00" width="4.00" height="4.00" stroke="black" stroke-width="0.2" stroke-linecap="butt" fill="black"/>
    <rect x="96.00" y="24.00" width="4.00" height="4.00" stroke="black" stroke-width="0.2" stroke-linecap="butt" fill="black"/>
    <rect x="36.00" y="28.00" width="4.00" height="4.00" stroke="black" stroke-width="0.2" stroke-linecap="butt" fill="black"/>
    <rect x="40.00" y="28.00" width="4.00" height="4.00" stroke="black" stroke-width="0.2" stroke-linecap="butt" fill="black"/>
    <rect x="48.00" y="28.00" width="4.00" height="4.00" stroke="black" stroke-width="0.2" stroke-linecap="butt" fill="black"/>
    <rect x="60.00" y="28.00" width="4.00" height="4.00" stroke="black" stroke-width="0.2" stroke-linecap="butt" fill="black"/>
    <rect x="0.00" y="32.00" width="4.00" height="4.00" stroke="black" stroke-width="0.2" stroke-linecap="butt" fill="black"/>
    <rect x="4.00" y="32.00" width="4.00" height="4.00" stroke="black" stroke-width="0.2" stroke-linecap="butt" fill="black"/>
    <rect x="16.00" y="32.00" width="4.00" height="4.00" stroke="black" stroke-width="0.2" stroke-linecap="butt" fill="black"/>
    <rect x="20.00" y="32.00" width="4.00" height="4.00" stroke="black" stroke-width="0.2" stroke-linecap="butt" fill="black"/>
    <rect x="24.00" y="32.00" width="4.00" height="4.00" stroke="black" stroke-width="0.2" stroke-linecap="butt" fill="black"/>
    <rect x="28.00" y="32.00" width="4.00" height="4.00" stroke="black" stroke-width="0.2" stroke-linecap="butt" fill="black"/>
    <rect x="32.00" y="32.00" width="4.00" height="4.00" stroke="black" stroke-width="0.2" stroke-linecap="butt" fill="black"/>
    <rect x="36.00" y="32.00" width="4.00" height="4.00" stroke="black" stroke-width="0.2" stroke-linecap="butt" fill="black"/>
    <rect x="44.00" y="32.00" width="4.00" height="4.00" stroke="black" stroke-width="0.2" stroke-linecap="butt" fill="black"/>
    <rect x="48.00" y="32.00" width="4.00" height="4.00" stroke="black" stroke-width="0.2" stroke-linecap="butt" fill="black"/>
    <rect x="52.00" y="32.00" width="4.00" height="4.00" stroke="black" stroke-width="0.2" stroke-linecap="butt" fill="black"/>
    <rect x="68.00" y="32.00" width="4.00" height="4.00" stroke="black" stroke-width="0.2" stroke-linecap="butt" fill="black"/>
    <rect x="76.00" y="32.00" width="4.00" height="4.00" stroke="black" stroke-width="0.2" stroke-linecap="butt" fill="black"/>
    <rect x="88.00" y="32.00" width="4.00" height="4.00" stroke="black" stroke-width="0.2" stroke-linecap="butt" fill="black"/>
    <rect x="92.00" y="32.00" width="4.00" height="4.00" stroke="black" stroke-width="0.2" stroke-linecap="butt" fill="black"/>
    <rect x="96.00" y="32.00" width="4.00" height="4.00" stroke="black" stroke-width="0.2" stroke-linecap="butt" fill="black"/>
    <rect x="4.00" y="36.00" width="4.00" height="4.00" stroke="black" stroke-width="0.2" stroke-linecap="butt" fill="black"/>
    <rect x="16.00" y="36.00" width="4.00" height="4.00" stroke="black" stroke-width="0.2" stroke-linecap="butt" fill="black"/>
    <rect x="32.00" y="36.00" width="4.00" height="4.00" stroke="black" stroke-width="0.2" stroke-linecap="butt" fill="black"/>
    <rect x="36.00" y="36.00" width="4.00" height="4.00" stroke="black" stroke-width="0.2" stroke-linecap="butt" fill="black"/>
    <rect x="44.00" y="36.00" width="4.00" height="4.00" stroke="black" stroke-width="0.2" stroke-linecap="butt" fill="black"/>
    <rect x="48.00" y="36.00" width="4.00" height="4.00" stroke="black" stroke-width="0.2" stroke-linecap="butt" fill="black"/>
    <rect x="52.00" y="36.00" width="4.00" height="4.00" stroke="black" stroke-width="0.2" stroke-linecap="butt" fill="black"/>
    <rect x="60.00" y="36.00" width="4.00" height="4.00" stroke="black" stroke-width="0.2" stroke-linecap="butt" fill="black"/>
    <rect x="68.00" y="36.00" width="4.00" height="4.00" stroke="black" stroke-width="0.2" stroke-linecap="butt" fill="black"/>
    <rect x="76.00" y="36.00" width="4.00" height="4.00" stroke="black" stroke-width="0.2" stroke-linecap="butt" fill="black"/>
    <rect x="84.00" y="36.00" width="4.00" height="4.00" stroke="black" stroke-width="0.2" stroke-linecap="butt" fill="black"/>
    <rect x="88.00" y="36.00" width="4.00" height="4.00" stroke="black" stroke-width="0.2" stroke-linecap="butt" fill="black"/>
    <rect x="92.00" y="36.00" width="4.00" height="4.00" stroke="black" stroke-width="0.2" stroke-linecap="butt" fill="black"/>
    <rect x="96.00" y="36.00" width="4.00" height="4.00" stroke="black" stroke-width="0.2" stroke-linecap="butt" fill="black"/>
    <rect x="0.00" y="40.00" width="4.00" height="4.00" stroke="black" stroke-width="0.2" stroke-linecap="butt" fill="black"/>
    <rect x="4.00" y="40.00" width="4.00" height="4.00" stroke="black" stroke-width="0.2" stroke-linecap="butt" fill="black"/>
    <rect x="8.00" y="40.00" width="4.00" height="4.00" stroke="black" stroke-width="0.2" stroke-linecap="butt" fill="black"/>
    <rect x="12.00" y="40.00" width="4.00" height="4.00" stroke="black" stroke-width="0.2" stroke-linecap="butt" fill="black"/>
    <rect x="16.00" y="40.00" width="4.00" height="4.00" stroke="black" stroke-width="0.2" stroke-linecap="butt" fill="black"/>
    <rect x="24.00" y="40.00" width="4.00" height="4.00" stroke="black" stroke-width="0.2" stroke-linecap="butt" fill="black"/>
    <rect x="28.00" y="40.00" width="4.00" height="4.00" stroke="black" stroke-width="0.2" stroke-linecap="butt" fill="black"/>
    <rect x="32.00" y="40.00" width="4.00" height="4.00" stroke="black" stroke-width="0.2" stroke-linecap="butt" fill="black"/>
    <rect x="36.00" y="40.00" width="4.00" height="4.00" stroke="black" stroke-width="0.2" stroke-linecap="butt" fill="black"/>
    <rect x="56.00" y="40.00" width="4.00" height="4.00" stroke="black" stroke-width="0.2" stroke-linecap="butt" fill="black"/>
    <rect x="60.00" y="40.00" width="4.00" height="4.00" stroke="black" stroke-width="0.2" stroke-linecap="butt" fill="black"/>
    <rect x="92.00" y="40.00" width="4.00" height="4.00" stroke="black" stroke-width="0.2" stroke-linecap="butt" fill="black"/>
    <rect x="96.00" y="40.00" width="4.00" height="4.00" stroke="black" stroke-width="0.2" stroke-linecap="butt" fill="black"/>
    <rect x="0.00" y="44.00" width="4.00" height="4.00" stroke="black" stroke-width="0.2" stroke-linecap="butt" fill="black"/>
    <rect x="8.00" y="44.00" width="4.00" height="4.00" stroke="black" stroke-width="0.2" stroke-linecap="butt" fill="black"/>
    <rect x="16.00" y="44.00" width="4.00" height="4.00" stroke="black" stroke-width="0.2" stroke-linecap="butt" fill="black"/>
    <rect x="28.00" y="44.00" width="4.00" height="4.00" stroke="black" stroke-width="0.2" stroke-linecap="butt" fill="black"/>
    <rect x="32.00" y="44.00" width="4.00" height="4.00" stroke="black" stroke-width="0.2" stroke-linecap="butt" fill="black"/>
    <rect x="36.00" y="44.00" width="4.00" height="4.00" stroke="black" stroke-width="0.2" stroke-linecap="butt" fill="black"/>
    <rect x="40.00" y="44.00" width="4.00" height="4.00" stroke="black" stroke-width="0.2" stroke-linecap="butt" fill="black"/>
    <rect x="44.00" y="44.00" width="4.00" height="4.00" stroke="black" stroke-width="0.2" stroke-linecap="butt" fill="black"/>
    <rect x="52.00" y="44.00" width="4.00" height="4.00" stroke="black" stroke-width="0.2" stroke-linecap="butt" fill="black"/>
    <rect x="56.00" y="44.00" width="4.00" height="4.00" stroke="black" stroke-width="0.2" stroke-linecap="butt" fill="black"/>
    <rect x="68.00" y="44.00" width="4.00" height="4.00" stroke="black" stroke-width="0.2" stroke-linecap="butt" fill="black"/>
    <rect x="72.00" y="44.00" width="4.00" height="4.00" stroke="black" stroke-width="0.2" stroke-linecap="butt" fill="black"/>
    <rect x="84.00" y="44.00" width="4.00" height="4.00" stroke="black" stroke-width="0.2" stroke-linecap="butt" fill="black"/>
    <rect x="88.00" y="44.00" width="4.00" height="4.00" stroke="black" stroke-width="0.2" stroke-linecap="butt" fill="black"/>
    <rect x="0.00" y="48.00" width="4.00" height="4.00" stroke="black" stroke-width="0.2" stroke-linecap="butt" fill="black"/>
    <rect x="8.00" y="48.00" width="4.00" height="4.00" stroke="black" stroke-width="0.2" stroke-linecap="butt" fill="black"/>
    <rect x="16.00" y="48.00" width="4.00" height="4.00" stroke="black" stroke-width="0.2" stroke-linecap="butt" fill="black"/>
    <rect x="20.00" y="48.00" width="4.00" height="4.00" stroke="black" stroke-width="0.2" stroke-linecap="butt" fill="black"/>
    <rect x="24.00" y="48.00" width="4.00" height="4.00" stroke="black" stroke-width="0.2" stroke-linecap="butt" fill="black"/>
    <rect x="28.00" y="48.00" width="4.00" height="4.00" stroke="black" stroke-width="0.2" stroke-linecap="butt" fill="black"/>
    <rect x="32.00" y="48.00" width="4.00" height="4.00" stroke="black" stroke-width="0.2" stroke-linecap="butt" fill="black"/>
    <rect x="36.00" y="48.00" width="4.00" height="4.00" stroke="black" stroke-width="0.2" stroke-linecap="butt" fill="black"/>
    <rect x="40.00" y="48.00" width="4.00" height="4.00" stroke="black" stroke-width="0.2" stroke-linecap="butt" fill="black"/>
    <rect x="44.00" y="48.00" width="4.00" height="4.00" stroke="black" stroke-width="0.2" stroke-linecap="butt" fill="black"/>
    <rect x="48.00" y="48.00" width="4.00" height="4.00" stroke="black" stroke-width="0.2" stroke-linecap="butt" fill="black"/>
    <rect x="52.00" y="48.00" width="4.00" height="4.00" stroke="black" stroke-width="0.2" stroke-linecap="butt" fill="black"/>
    <rect x="64.00" y="48.00" width="4.00" height="4.00" stroke="black" stroke-width="0.2" stroke-linecap="butt" fill="black"/>
    <rect x="68.00" y="48.00" width="4.00" height="4.00" stroke="black" stroke-width="0.2" stroke-linecap="butt" fill="black"/>
    <rect x="72.00" y="48.00" width="4.00" height="4.00" stroke="black" stroke-width="0.2" stroke-linecap="butt" fill="black"/>
    <rect x="76.00" y="48.00" width="4.00" height="4.00" stroke="black" stroke-width="0.2" stroke-linecap="butt" fill="black"/>
    <rect x="80.00" y="48.00" width="4.00" height="4.00" stroke="black" stroke-width="0.2" stroke-linecap="butt" fill="black"/>
    <rect x="84.00" y="48.00" width="4.00" height="4.00" stroke="black" stroke-width="0.2" stroke-linecap="butt" fill="black"/>
    <rect x="88.00" y="48.00" width="4.00" height="4.00" stroke="black" stroke-width="0.2" stroke-linecap="butt" fill="black"/>
    <rect x="92.00" y="48.00" width="4.00" height="4.00" stroke="black" stroke-width="0.2" stroke-linecap="butt" fill="black"/>
    <rect x="96.00" y="48.00" width="4.00" height="4.00" stroke="black" stroke-width="0.2" stroke-linecap="butt" fill="black"/>
    <rect x="8.00" y="52.00" width="4.00" height="4.00" stroke="black" stroke-width="0.2" stroke-linecap="butt" fill="black"/>
    <rect x="12.00" y="52.00" width="4.00" height="4.00" stroke="black" stroke-width="0.2" stroke-linecap="butt" fill="black"/>
    <rect x="20.00" y="52.00" width="4.00" height="4.00" stroke="black" stroke-width="0.2" stroke-linecap="butt" fill="black"/>
    <rect x="40.00" y="52.00" width="4.00" height="4.00" stroke="black" stroke-width="0.2" stroke-linecap="butt" fill="black"/>
    <rect x="84.00" y="52.00" width="4.00" height="4.00" stroke="black" stroke-width="0.2" stroke-linecap="butt" fill="black"/>
    <rect x="0.00" y="56.00" width="4.00" height="4.00" stroke="black" stroke-width="0.2" stroke-linecap="butt" fill="black"/>
    <rect x="4.00" y="56.00" width="4.00" height="4.00" stroke="black" stroke-width="0.2" stroke-linecap="butt" fill="black"/>
    <rect x="16.00" y="56.00" width="4.00" height="4.00" stroke="black" stroke-width="0.2" stroke-linecap="butt" fill="black"/>
    <rect x="20.00" y="56.00" width="4.00" height="4.00" stroke="black" stroke-width="0.2" stroke-linecap="butt" fill="black"/>
    <rect x="24.00" y="56.00" width="4.00" height="4.00" stroke="black" stroke-width="0.2" stroke-linecap="butt" fill="black"/>
    <rect x="28.00" y="56.00" width="4.00" height="4.00" stroke="black" stroke-width="0.2" stroke-linecap="butt" fill="black"/>
    <rect x="52.00" y="56.00" width="4.00" height="4.00" stroke="black" stroke-width="0.2" stroke-linecap="butt" fill="black"/>
    <rect x="56.00" y="56.00" width="4.00" height="4.00" stroke="black" stroke-width="0.2" stroke-linecap="butt" fill="black"/>
    <rect x="72.00" y="56.00" width="4.00" height="4.00" stroke="black" stroke-width="0.2" stroke-linecap="butt" fill="black"/>
    <rect x="76.00" y="56.00" width="4.00" height="4.00" stroke="black" stroke-width="0.2" stroke-linecap="butt" fill="black"/>
    <rect x="92.00" y="56.00" width="4.00" height="4.00" stroke="black" stroke-width="0.2" stroke-linecap="butt" fill="black"/>
    <rect x="12.00" y="60.00" width="4.00" height="4.00" stroke="black" stroke-width="0.2" stroke-linecap="butt" fill="black"/>
    <rect x="28.00" y="60.00" width="4.00" height="4.00" stroke="black" stroke-width="0.2" stroke-linecap="butt" fill="black"/>
    <rect x="32.00" y="60.00" width="4.00" height="4.00" stroke="black" stroke-width="0.2" stroke-linecap="butt" fill="black"/>
    <rect x="36.00" y="60.00" width="4.00" height="4.00" stroke="black" stroke-width="0.2" stroke-linecap="butt" fill="black"/>
    <rect x="40.00" y="60.00" width="4.00" height="4.00" stroke="black" stroke-width="0.2" stroke-linecap="butt" fill="black"/>
    <rect x="44.00" y="60.00" width="4.00" height="4.00" stroke="black" stroke-width="0.2" stroke-linecap="butt" fill="black"/>
    <rect x="52.00" y="60.00" width="4.00" height="4.00" stroke="black" stroke-width="0.2" stroke-linecap="butt" fill="black"/>
    <rect x="56.00" y="60.00" width="4.00" height="4.00" stroke="black" stroke-width="0.2" stroke-linecap="butt" fill="black"/>
    <rect x="60.00" y="60.00" width="4.00" height="4.00" stroke="black" stroke-width="0.2" stroke-linecap="butt" fill="black"/>
    <rect x="64.00" y="60.00" width="4.00" height="4.00" stroke="black" stroke-width="0.2" stroke-linecap="butt" fill="black"/>
    <rect x="68.00" y="60.00" width="4.00" height="4.00" stroke="black" stroke-width="0.2" stroke-linecap="butt" fill="black"/>
    <rect x="76.00" y="60.00" width="4.00" height="4.00" stroke="black" stroke-width="0.2" stroke-linecap="butt" fill="black"/>
    <rect x="80.00" y="60.00" width="4.00" height="4.00" stroke="black" stroke-width="0.2" stroke-linecap="butt" fill="black"/>
    <rect x="84.00" y="60.00" width="4.00" height="4.00" stroke="black" stroke-width="0.2" stroke-linecap="butt" fill="black"/>
    <rect x="4.00" y="64.00" width="4.00" height="4.00" stroke="black" stroke-width="0.2" stroke-linecap="butt" fill="black"/>
    <rect x="20.00" y="64.00" width="4.00" height="4.00" stroke="black" stroke-width="0.2" stroke-linecap="butt" fill="black"/>
    <rect x="24.00" y="64.00" width="4.00" height="4.00" stroke="black" stroke-width="0.2" stroke-linecap="butt" fill="black"/>
    <rect x="32.00" y="64.00" width="4.00" height="4.00" stroke="black" stroke-width="0.2" stroke-linecap="butt" fill="black"/>
    <rect x="36.00" y="64.00" width="4.00" height="4.00" stroke="black" stroke-width="0.2" stroke-linecap="butt" fill="black"/>
    <rect x="40.00" y="64.00" width="4.00" height="4.00" stroke="black" stroke-width="0.2" stroke-linecap="butt" fill="black"/>
    <rect x="44.00" y="64.00" width="4.00" height="4.00" stroke="black" stroke-width="0.2" stroke-linecap="butt" fill="black"/>
    <rect x="48.00" y="64.00" width="4.00" height="4.00" stroke="black" stroke-width="0.2" stroke-linecap="butt" fill="black"/>
    <rect x="56.00" y="64.00" width="4.00" height="4.00" stroke="black" stroke-width="0.2" stroke-linecap="butt" fill="black"/>
    <rect x="60.00" y="64.00" width="4.00" height="4.00" stroke="black" stroke-width="0.2" stroke-linecap="butt" fill="black"/>
    <rect x="64.00" y="64.00" width="4.00" height="4.00" stroke="black" stroke-width="0.2" stroke-linecap="butt" fill="black"/>
    <rect x="68.00" y="64.00" width="4.00" height="4.00" stroke="black" stroke-width="0.2" stroke-linecap="butt" fill="black"/>
    <rect x="72.00" y="64.00" width="4.00" height="4.00" stroke="black" stroke-width="0.2" stroke-linecap="butt" fill="black"/>
    <rect x="76.00" y="64.00" width="4.00" height="4.00" stroke="black" stroke-width="0.2" stroke-linecap="butt" fill="black"/>
    <rect x="80.00" y="64.00" width="4.00" height="4.00" stroke="black" stroke-width="0.2" stroke-linecap="butt" fill="black"/>
    <rect x="88.00" y="64.00" width="4.00" height="4.00" stroke="black" stroke-width="0.2" stroke-linecap="butt" fill="black"/>
    <rect x="92.00" y="64.00" width="4.00" height="4.00" stroke="black" stroke-width="0.2" stroke-linecap="butt" fill="black"/>
    <rect x="96.00" y="64.00" width="4.00" height="4.00" stroke="black" stroke-width="0.2" stroke-linecap="butt" fill="black"/>
    <rect x="32.00" y="68.00" width="4.00" height="4.00" stroke="black" stroke-width="0.2" stroke-linecap="butt" fill="black"/>
    <rect x="44.00" y="68.00" width="4.00" height="4.00" stroke="black" stroke-width="0.2" stroke-linecap="butt" fill="black"/>
    <rect x="64.00" y="68.00" width="4.00" height="4.00" stroke="black" stroke-width="0.2" stroke-linecap="butt" fill="black"/>
    <rect x="80.00" y="68.00" width="4.00" height="4.00" stroke="black" stroke-width="0.2" stroke-linecap="butt" fill="black"/>
    <rect x="84.00" y="68.00" width="4.00" height="4.00" stroke="black" stroke-width="0.2" stroke-linecap="butt" fill="black"/>
    <rect x="88.00" y="68.00" width="4.00" height="4.00" stroke="black" stroke-width="0.2" stroke-linecap="butt" fill="black"/>
    <rect x="92.00" y="68.00" width="4.00" height="4.00" stroke="black" stroke-width="0.2" stroke-linecap="butt" fill="black"/>
    <rect x="96.00" y="68.00" width="4.00" height="4.00" stroke="black" stroke-width="0.2" stroke-linecap="butt" fill="black"/>
    <rect x="0.00" y="72.00" width="4.00" height="4.00" stroke="black" stroke-width="0.2" stroke-linecap="butt" fill="black"/>
    <rect x="4.00" y="72.00" width="4.00" height="4.00" stroke="black" stroke-width="0.2" stroke-linecap="butt" fill="black"/>
    <rect x="8.00" y="72.00" width="4.00" height="4.00" stroke="black" stroke-width="0.2" stroke-linecap="butt" fill="black"/>
    <rect x="12.00" y="72.00" width="4.00" height="4.00" stroke="black" stroke-width="0.2" stroke-linecap="butt" fill="black"/>
    <rect x="16.00" y="72.00" width="4.00" height="4.00" stroke="black" stroke-width="0.2" stroke-linecap="butt" fill="black"/>
    <rect x="20.00" y="72.00" width="4.00" height="4.00" stroke="black" stroke-width="0.2" stroke-linecap="butt" fill="black"/>
    <rect x="24.00" y="72.00" width="4.00" height="4.00" stroke="black" stroke-width="0.2" stroke-linecap="butt" fill="black"/>
    <rect x="32.00" y="72.00" width="4.00" height="4.00" stroke="black" stroke-width="0.2" stroke-linecap="butt" fill="black"/>
    <rect x="36.00" y="72.00" width="4.00" height="4.00" stroke="black" stroke-width="0.2" stroke-linecap="butt" fill="black"/>
    <rect x="44.00" y="72.00" width="4.00" height="4.00" stroke="black" stroke-width="0.2" stroke-linecap="butt" fill="black"/>
    <rect x="48.00" y="72.00" width="4.00" height="4.00" stroke="black" stroke-width="0.2" stroke-linecap="butt" fill="black"/>
    <rect x="52.00" y="72.00" width="4.00" height="4.00" stroke="black" stroke-width="0.2" stroke-linecap="butt" fill="black"/>
    <rect x="64.00" y="72.00" width="4.00" height="4.00" stroke="black" stroke-width="0.2" stroke-linecap="butt" fill="black"/>
    <rect x="72.00" y="72.00" width="4.00" height="4.00" stroke="black" stroke-width="0.2" stroke-linecap="butt" fill="black"/>
    <rect x="80.00" y="72.00" width="4.00" height="4.00" stroke="black" stroke-width="0.2" stroke-linecap="butt" fill="black"/>
    <rect x="92.00" y="72.00" width="4.00" height="4.00" stroke="black" stroke-width="0.2" stroke-linecap="butt" fill="black"/>
    <rect x="96.00" y="72.00" width="4.00" height="4.00" stroke="black" stroke-width="0.2" stroke-linecap="butt" fill="black"/>
    <rect x="0.00" y="76.00" width="4.00" height="4.00" stroke="black" stroke-width="0.2" stroke-linecap="butt" fill="black"/>
    <rect x="24.00" y="76.00" width="4.00" height="4.00" stroke="black" stroke-width="0.2" stroke-linecap="butt" fill="black"/>
    <rect x="32.00" y="76.00" width="4.00" height="4.00" stroke="black" stroke-width="0.2" stroke-linecap="butt" fill="black"/>
    <rect x="36.00" y="76.00" width="4.00" height="4.00" stroke="black" stroke-width="0.2" stroke-linecap="butt" fill="black"/>
    <rect x="40.00" y="76.00" width="4.00" height="4.00" stroke="black" stroke-width="0.2" stroke-linecap="butt" fill="black"/>
    <rect x="52.00" y="76.00" width="4.00" height="4.00" stroke="black" stroke-width="0.2" stroke-linecap="butt" fill="black"/>
    <rect x="60.00" y="76.00" width="4.00" height="4.00" stroke="black" stroke-width="0.2" stroke-linecap="butt" fill="black"/>
    <rect x="64.00" y="76.00" width="4.00" height="4.00" stroke="black" stroke-width="0.2" stroke-linecap="butt" fill="black"/>
    <rect x="80.00" y="76.00" width="4.00" height="4.00" stroke="black" stroke-width="0.2" stroke-linecap="butt" fill="black"/>
    <rect x="88.00" y="76.00" width="4.00" height="4.00" stroke="black" stroke-width="0.2" stroke-linecap="butt" fill="black"/>
    <rect x="92.00" y="76.00" width="4.00" height="4.00" stroke="black" stroke-width="0.2" stroke-linecap="butt" fill="black"/>
    <rect x="0.00" y="80.00" width="4.00" height="4.00" stroke="black" stroke-width="0.2" stroke-linecap="butt" fill="black"/>
    <rect x="8.00" y="80.00" width="4.00" height="4.00" stroke="black" stroke-width="0.2" stroke-linecap="butt" fill="black"/>
    <rect x="12.00" y="80.00" width="4.00" height="4.00" stroke="black" stroke-width="0.2" stroke-linecap="butt" fill="black"/>
    <rect x="16.00" y="80.00" width="4.00" height="4.00" stroke="black" stroke-width="0.2" stroke-linecap="butt" fill="black"/>
    <rect x="24.00" y="80.00" width="4.00" height="4.00" stroke="black" stroke-width="0.2" stroke-linecap="butt" fill="black"/>
    <rect x="32.00" y="80.00" width="4.00" height="4.00" stroke="black" stroke-width="0.2" stroke-linecap="butt" fill="black"/>
    <rect x="40.00" y="80.00" width="4.00" height="4.00" stroke="black" stroke-width="0.2" stroke-linecap="butt" fill="black"/>
    <rect x="60.00" y="80.00" width="4.00" height="4.00" stroke="black" stroke-width="0.2" stroke-linecap="butt" fill="black"/>
    <rect x="64.00" y="80.00" width="4.00" height="4.00" stroke="black" stroke-width="0.2" stroke-linecap="butt" fill="black"/>
    <rect x="68.00" y="80.00" width="4.00" height="4.00" stroke="black" stroke-width="0.2" stroke-linecap="butt" fill="black"/>
    <rect x="72.00" y="80.00" width="4.00" height="4.00" stroke="black" stroke-width="0.2" stroke-linecap="butt" fill="black"/>
    <rect x="76.00" y="80.00" width="4.00" height="4.00" stroke="black" stroke-width="0.2" stroke-linecap="butt" fill="black"/>
    <rect x="80.00" y="80.00" width="4.00" height="4.00" stroke="black" stroke-width="0.2" stroke-linecap="butt" fill="black"/>
    <rect x="84.00" y="80.00" width="4.00" height="4.00" stroke="black" stroke-width="0.2" stroke-linecap="butt" fill="black"/>
    <rect x="88.00" y="80.00" width="4.00" height="4.00" stroke="black" stroke-width="0.2" stroke-linecap="butt" fill="black"/>
    <rect x="92.00" y="80.00" width="4.00" height="4.00" stroke="black" stroke-width="0.2" stroke-linecap="butt" fill="black"/>
    <rect x="0.00" y="84.00" width="4.00" height="4.00" stroke="black" stroke-width="0.2" stroke-linecap="butt" fill="black"/>
    <rect x="8.00" y="84.00" width="4.00" height="4.00" stroke="black" stroke-width="0.2" stroke-linecap="butt" fill="black"/>
    <rect x="12.00" y="84.00" width="4.00" height="4.00" stroke="black" stroke-width="0.2" stroke-linecap="butt" fill="black"/>
    <rect x="16.00" y="84.00" width="4.00" height="4.00" stroke="black" stroke-width="0.2" stroke-linecap="butt" fill="black"/>
    <rect x="24.00" y="84.00" width="4.00" height="4.00" stroke="black" stroke-width="0.2" stroke-linecap="butt" fill="black"/>
    <rect x="36.00" y="84.00" width="4.00" height="4.00" stroke="black" stroke-width="0.2" stroke-linecap="butt" fill="black"/>
    <rect x="40.00" y="84.00" width="4.00" height="4.00" stroke="black" stroke-width="0.2" stroke-linecap="butt" fill="black"/>
    <rect x="44.00" y="84.00" width="4.00" height="4.00" stroke="black" stroke-width="0.2" stroke-linecap="butt" fill="black"/>
    <rect x="56.00" y="84.00" width="4.00" height="4.00" stroke="black" stroke-width="0.2" stroke-linecap="butt" fill="black"/>
    <rect x="60.00" y="84.00" width="4.00" height="4.00" stroke="black" stroke-width="0.2" stroke-linecap="butt" fill="black"/>
    <rect x="88.00" y="84.00" width="4.00" height="4.00" stroke="black" stroke-width="0.2" stroke-linecap="butt" fill="black"/>
    <rect x="96.00" y="84.00" width="4.00" height="4.00" stroke="black" stroke-width="0.2" stroke-linecap="butt" fill="black"/>
    <rect x="0.00" y="88.00" width="4.00" height="4.00" stroke="black" stroke-width="0.2" stroke-linecap="butt" fill="black"/>
    <rect x="8.00" y="88.00" width="4.00" height="4.00" stroke="black" stroke-width="0.2" stroke-linecap="butt" fill="black"/>
    <rect x="12.00" y="88.00" width="4.00" height="4.00" stroke="black" stroke-width="0.2" stroke-linecap="butt" fill="black"/>
    <rect x="16.00" y="88.00" width="4.00" height="4.00" stroke="black" stroke-width="0.2" stroke-linecap="butt" fill="black"/>
    <rect x="24.00" y="88.00" width="4.00" height="4.00" stroke="black" stroke-width="0.2" stroke-linecap="butt" fill="black"/>
    <rect x="40.00" y="88.00" width="4.00" height="4.00" stroke="black" stroke-width="0.2" stroke-linecap="butt" fill="black"/>
    <rect x="56.00" y="88.00" width="4.00" height="4.00" stroke="black" stroke-width="0.2" stroke-linecap="butt" fill="black"/>
    <rect x="84.00" y="88.00" width="4.00" height="4.00" stroke="black" stroke-width="0.2" stroke-linecap="butt" fill="black"/>
    <rect x="0.00" y="92.00" width="4.00" height="4.00" stroke="black" stroke-width="0.2" stroke-linecap="butt" fill="black"/>
    <rect x="24.00" y="92.00" width="4.00" height="4.00" stroke="black" stroke-width="0.2" stroke-linecap="butt" fill="black"/>
    <rect x="32.00" y="92.00" width="4.00" height="4.00" stroke="black" stroke-width="0.2" stroke-linecap="butt" fill="black"/>
    <rect x="36.00" y="92.00" width="4.00" height="4.00" stroke="black" stroke-width="0.2" stroke-linecap="butt" fill="black"/>
    <rect x="52.00" y="92.00" width="4.00" height="4.00" stroke="black" stroke-width="0.2" stroke-linecap="butt" fill="black"/>
    <rect x="64.00" y="92.00" width="4.00" height="4.00" stroke="black" stroke-width="0.2" stroke-linecap="butt" fill="black"/>
    <rect x="84.00" y="92.00" width="4.00" height="4.00" stroke="black" stroke-width="0.2" stroke-linecap="butt" fill="black"/>
    <rect x="88.00" y="92.00" width="4.00" height="4.00" stroke="black" stroke-width="0.2" stroke-linecap="butt" fill="black"/>
    <rect x="0.00" y="96.00" width="4.00" height="4.00" stroke="black" stroke-width="0.2" stroke-linecap="butt" fill="black"/>
    <rect x="4.00" y="96.00" width="4.00" height="4.00" stroke="black" stroke-width="0.2" stroke-linecap="butt" fill="black"/>
    <rect x="8.00" y="96.00" width="4.00" height="4.00" stroke="black" stroke-width="0.2" stroke-linecap="butt" fill="black"/>
    <rect x="12.00" y="96.00" width="4.00" height="4.00" stroke="black" stroke-width="0.2" stroke-linecap="butt" fill="black"/>
    <rect x="16.00" y="96.00" width="4.00" height="4.00" stroke="black" stroke-width="0.2" stroke-linecap="butt" fill="black"/>
    <rect x="20.00" y="96.00" width="4.00" height="4.00" stroke="black" stroke-width="0.2" stroke-linecap="butt" fill="black"/>
    <rect x="24.00" y="96.00" width="4.00" height="4.00" stroke="black" stroke-width="0.2" stroke-linecap="butt" fill="black"/>
    <rect x="32.00" y="96.00" width="4.00" height="4.00" stroke="black" stroke-width="0.2" stroke-linecap="butt" fill="black"/>
    <rect x="36.00" y="96.00" width="4.00" height="4.00" stroke="black" stroke-width="0.2" stroke-linecap="butt" fill="black"/>
    <rect x="40.00" y="96.00" width="4.00" height="4.00" stroke="black" stroke-width="0.2" stroke-linecap="butt" fill="black"/>
    <rect x="48.00" y="96.00" width="4.00" height="4.00" stroke="black" stroke-width="0.2" stroke-linecap="butt" fill="black"/>
    <rect x="52.00" y="96.00" width="4.00" height="4.00" stroke="black" stroke-width="0.2" stroke-linecap="butt" fill="black"/>
    <rect x="56.00" y="96.00" width="4.00" height="4.00" stroke="black" stroke-width="0.2" stroke-linecap="butt" fill="black"/>
    <rect x="68.00" y="96.00" width="4.00" height="4.00" stroke="black" stroke-width="0.2" stroke-linecap="butt" fill="black"/>
    <rect x="72.00" y="96.00" width="4.00" height="4.00" stroke="black" stroke-width="0.2" stroke-linecap="butt" fill="black"/>
    <rect x="88.00" y="96.00" width="4.00" height="4.00" stroke="black" stroke-width="0.2" stroke-linecap="butt" fill="black"/>
    <rect x="96.00" y="96.00" width="4.00" height="4.00" stroke="black" stroke-width="0.2" stroke-linecap="butt" fill="black"/>
  </g>
</svg>
