<?xml version="1.0" encoding="UTF-8" ?>
<svg xmlns="http://www.w3.org/2000/svg" xmlns:xlink="http://www.w3.org/1999/xlink" height="450" width="450">
  <g id="qrcode:http://PollEv.com/drcolling">
    <rect x="0" y="0" width="450px" height="450px" style="fill:white;"/>
    <rect x="0.00" y="0.00" width="18.00" height="18.00" stroke="black" stroke-width="0.2" stroke-linecap="butt" fill="black"/>
    <rect x="18.00" y="0.00" width="18.00" height="18.00" stroke="black" stroke-width="0.2" stroke-linecap="butt" fill="black"/>
    <rect x="36.00" y="0.00" width="18.00" height="18.00" stroke="black" stroke-width="0.2" stroke-linecap="butt" fill="black"/>
    <rect x="54.00" y="0.00" width="18.00" height="18.00" stroke="black" stroke-width="0.2" stroke-linecap="butt" fill="black"/>
    <rect x="72.00" y="0.00" width="18.00" height="18.00" stroke="black" stroke-width="0.2" stroke-linecap="butt" fill="black"/>
    <rect x="90.00" y="0.00" width="18.00" height="18.00" stroke="black" stroke-width="0.2" stroke-linecap="butt" fill="black"/>
    <rect x="108.00" y="0.00" width="18.00" height="18.00" stroke="black" stroke-width="0.2" stroke-linecap="butt" fill="black"/>
    <rect x="144.00" y="0.00" width="18.00" height="18.00" stroke="black" stroke-width="0.2" stroke-linecap="butt" fill="black"/>
    <rect x="162.00" y="0.00" width="18.00" height="18.00" stroke="black" stroke-width="0.2" stroke-linecap="butt" fill="black"/>
    <rect x="180.00" y="0.00" width="18.00" height="18.00" stroke="black" stroke-width="0.2" stroke-linecap="butt" fill="black"/>
    <rect x="198.00" y="0.00" width="18.00" height="18.00" stroke="black" stroke-width="0.2" stroke-linecap="butt" fill="black"/>
    <rect x="216.00" y="0.00" width="18.00" height="18.00" stroke="black" stroke-width="0.2" stroke-linecap="butt" fill="black"/>
    <rect x="252.00" y="0.00" width="18.00" height="18.00" stroke="black" stroke-width="0.2" stroke-linecap="butt" fill="black"/>
    <rect x="288.00" y="0.00" width="18.00" height="18.00" stroke="black" stroke-width="0.2" stroke-linecap="butt" fill="black"/>
    <rect x="324.00" y="0.00" width="18.00" height="18.00" stroke="black" stroke-width="0.2" stroke-linecap="butt" fill="black"/>
    <rect x="342.00" y="0.00" width="18.00" height="18.00" stroke="black" stroke-width="0.2" stroke-linecap="butt" fill="black"/>
    <rect x="360.00" y="0.00" width="18.00" height="18.00" stroke="black" stroke-width="0.2" stroke-linecap="butt" fill="black"/>
    <rect x="378.00" y="0.00" width="18.00" height="18.00" stroke="black" stroke-width="0.2" stroke-linecap="butt" fill="black"/>
    <rect x="396.00" y="0.00" width="18.00" height="18.00" stroke="black" stroke-width="0.2" stroke-linecap="butt" fill="black"/>
    <rect x="414.00" y="0.00" width="18.00" height="18.00" stroke="black" stroke-width="0.2" stroke-linecap="butt" fill="black"/>
    <rect x="432.00" y="0.00" width="18.00" height="18.00" stroke="black" stroke-width="0.2" stroke-linecap="butt" fill="black"/>
    <rect x="0.00" y="18.00" width="18.00" height="18.00" stroke="black" stroke-width="0.2" stroke-linecap="butt" fill="black"/>
    <rect x="108.00" y="18.00" width="18.00" height="18.00" stroke="black" stroke-width="0.2" stroke-linecap="butt" fill="black"/>
    <rect x="144.00" y="18.00" width="18.00" height="18.00" stroke="black" stroke-width="0.2" stroke-linecap="butt" fill="black"/>
    <rect x="162.00" y="18.00" width="18.00" height="18.00" stroke="black" stroke-width="0.2" stroke-linecap="butt" fill="black"/>
    <rect x="234.00" y="18.00" width="18.00" height="18.00" stroke="black" stroke-width="0.2" stroke-linecap="butt" fill="black"/>
    <rect x="252.00" y="18.00" width="18.00" height="18.00" stroke="black" stroke-width="0.2" stroke-linecap="butt" fill="black"/>
    <rect x="288.00" y="18.00" width="18.00" height="18.00" stroke="black" stroke-width="0.2" stroke-linecap="butt" fill="black"/>
    <rect x="324.00" y="18.00" width="18.00" height="18.00" stroke="black" stroke-width="0.2" stroke-linecap="butt" fill="black"/>
    <rect x="432.00" y="18.00" width="18.00" height="18.00" stroke="black" stroke-width="0.2" stroke-linecap="butt" fill="black"/>
    <rect x="0.00" y="36.00" width="18.00" height="18.00" stroke="black" stroke-width="0.2" stroke-linecap="butt" fill="black"/>
    <rect x="36.00" y="36.00" width="18.00" height="18.00" stroke="black" stroke-width="0.2" stroke-linecap="butt" fill="black"/>
    <rect x="54.00" y="36.00" width="18.00" height="18.00" stroke="black" stroke-width="0.2" stroke-linecap="butt" fill="black"/>
    <rect x="72.00" y="36.00" width="18.00" height="18.00" stroke="black" stroke-width="0.2" stroke-linecap="butt" fill="black"/>
    <rect x="108.00" y="36.00" width="18.00" height="18.00" stroke="black" stroke-width="0.2" stroke-linecap="butt" fill="black"/>
    <rect x="144.00" y="36.00" width="18.00" height="18.00" stroke="black" stroke-width="0.2" stroke-linecap="butt" fill="black"/>
    <rect x="180.00" y="36.00" width="18.00" height="18.00" stroke="black" stroke-width="0.2" stroke-linecap="butt" fill="black"/>
    <rect x="234.00" y="36.00" width="18.00" height="18.00" stroke="black" stroke-width="0.2" stroke-linecap="butt" fill="black"/>
    <rect x="270.00" y="36.00" width="18.00" height="18.00" stroke="black" stroke-width="0.2" stroke-linecap="butt" fill="black"/>
    <rect x="324.00" y="36.00" width="18.00" height="18.00" stroke="black" stroke-width="0.2" stroke-linecap="butt" fill="black"/>
    <rect x="360.00" y="36.00" width="18.00" height="18.00" stroke="black" stroke-width="0.2" stroke-linecap="butt" fill="black"/>
    <rect x="378.00" y="36.00" width="18.00" height="18.00" stroke="black" stroke-width="0.2" stroke-linecap="butt" fill="black"/>
    <rect x="396.00" y="36.00" width="18.00" height="18.00" stroke="black" stroke-width="0.2" stroke-linecap="butt" fill="black"/>
    <rect x="432.00" y="36.00" width="18.00" height="18.00" stroke="black" stroke-width="0.2" stroke-linecap="butt" fill="black"/>
    <rect x="0.00" y="54.00" width="18.00" height="18.00" stroke="black" stroke-width="0.2" stroke-linecap="butt" fill="black"/>
    <rect x="36.00" y="54.00" width="18.00" height="18.00" stroke="black" stroke-width="0.2" stroke-linecap="butt" fill="black"/>
    <rect x="54.00" y="54.00" width="18.00" height="18.00" stroke="black" stroke-width="0.2" stroke-linecap="butt" fill="black"/>
    <rect x="72.00" y="54.00" width="18.00" height="18.00" stroke="black" stroke-width="0.2" stroke-linecap="butt" fill="black"/>
    <rect x="108.00" y="54.00" width="18.00" height="18.00" stroke="black" stroke-width="0.2" stroke-linecap="butt" fill="black"/>
    <rect x="180.00" y="54.00" width="18.00" height="18.00" stroke="black" stroke-width="0.2" stroke-linecap="butt" fill="black"/>
    <rect x="198.00" y="54.00" width="18.00" height="18.00" stroke="black" stroke-width="0.2" stroke-linecap="butt" fill="black"/>
    <rect x="234.00" y="54.00" width="18.00" height="18.00" stroke="black" stroke-width="0.2" stroke-linecap="butt" fill="black"/>
    <rect x="270.00" y="54.00" width="18.00" height="18.00" stroke="black" stroke-width="0.2" stroke-linecap="butt" fill="black"/>
    <rect x="288.00" y="54.00" width="18.00" height="18.00" stroke="black" stroke-width="0.2" stroke-linecap="butt" fill="black"/>
    <rect x="324.00" y="54.00" width="18.00" height="18.00" stroke="black" stroke-width="0.2" stroke-linecap="butt" fill="black"/>
    <rect x="360.00" y="54.00" width="18.00" height="18.00" stroke="black" stroke-width="0.2" stroke-linecap="butt" fill="black"/>
    <rect x="378.00" y="54.00" width="18.00" height="18.00" stroke="black" stroke-width="0.2" stroke-linecap="butt" fill="black"/>
    <rect x="396.00" y="54.00" width="18.00" height="18.00" stroke="black" stroke-width="0.2" stroke-linecap="butt" fill="black"/>
    <rect x="432.00" y="54.00" width="18.00" height="18.00" stroke="black" stroke-width="0.2" stroke-linecap="butt" fill="black"/>
    <rect x="0.00" y="72.00" width="18.00" height="18.00" stroke="black" stroke-width="0.2" stroke-linecap="butt" fill="black"/>
    <rect x="36.00" y="72.00" width="18.00" height="18.00" stroke="black" stroke-width="0.2" stroke-linecap="butt" fill="black"/>
    <rect x="54.00" y="72.00" width="18.00" height="18.00" stroke="black" stroke-width="0.2" stroke-linecap="butt" fill="black"/>
    <rect x="72.00" y="72.00" width="18.00" height="18.00" stroke="black" stroke-width="0.2" stroke-linecap="butt" fill="black"/>
    <rect x="108.00" y="72.00" width="18.00" height="18.00" stroke="black" stroke-width="0.2" stroke-linecap="butt" fill="black"/>
    <rect x="162.00" y="72.00" width="18.00" height="18.00" stroke="black" stroke-width="0.2" stroke-linecap="butt" fill="black"/>
    <rect x="180.00" y="72.00" width="18.00" height="18.00" stroke="black" stroke-width="0.2" stroke-linecap="butt" fill="black"/>
    <rect x="324.00" y="72.00" width="18.00" height="18.00" stroke="black" stroke-width="0.2" stroke-linecap="butt" fill="black"/>
    <rect x="360.00" y="72.00" width="18.00" height="18.00" stroke="black" stroke-width="0.2" stroke-linecap="butt" fill="black"/>
    <rect x="378.00" y="72.00" width="18.00" height="18.00" stroke="black" stroke-width="0.2" stroke-linecap="butt" fill="black"/>
    <rect x="396.00" y="72.00" width="18.00" height="18.00" stroke="black" stroke-width="0.2" stroke-linecap="butt" fill="black"/>
    <rect x="432.00" y="72.00" width="18.00" height="18.00" stroke="black" stroke-width="0.2" stroke-linecap="butt" fill="black"/>
    <rect x="0.00" y="90.00" width="18.00" height="18.00" stroke="black" stroke-width="0.2" stroke-linecap="butt" fill="black"/>
    <rect x="108.00" y="90.00" width="18.00" height="18.00" stroke="black" stroke-width="0.2" stroke-linecap="butt" fill="black"/>
    <rect x="144.00" y="90.00" width="18.00" height="18.00" stroke="black" stroke-width="0.2" stroke-linecap="butt" fill="black"/>
    <rect x="198.00" y="90.00" width="18.00" height="18.00" stroke="black" stroke-width="0.2" stroke-linecap="butt" fill="black"/>
    <rect x="270.00" y="90.00" width="18.00" height="18.00" stroke="black" stroke-width="0.2" stroke-linecap="butt" fill="black"/>
    <rect x="324.00" y="90.00" width="18.00" height="18.00" stroke="black" stroke-width="0.2" stroke-linecap="butt" fill="black"/>
    <rect x="432.00" y="90.00" width="18.00" height="18.00" stroke="black" stroke-width="0.2" stroke-linecap="butt" fill="black"/>
    <rect x="0.00" y="108.00" width="18.00" height="18.00" stroke="black" stroke-width="0.2" stroke-linecap="butt" fill="black"/>
    <rect x="18.00" y="108.00" width="18.00" height="18.00" stroke="black" stroke-width="0.2" stroke-linecap="butt" fill="black"/>
    <rect x="36.00" y="108.00" width="18.00" height="18.00" stroke="black" stroke-width="0.2" stroke-linecap="butt" fill="black"/>
    <rect x="54.00" y="108.00" width="18.00" height="18.00" stroke="black" stroke-width="0.2" stroke-linecap="butt" fill="black"/>
    <rect x="72.00" y="108.00" width="18.00" height="18.00" stroke="black" stroke-width="0.2" stroke-linecap="butt" fill="black"/>
    <rect x="90.00" y="108.00" width="18.00" height="18.00" stroke="black" stroke-width="0.2" stroke-linecap="butt" fill="black"/>
    <rect x="108.00" y="108.00" width="18.00" height="18.00" stroke="black" stroke-width="0.2" stroke-linecap="butt" fill="black"/>
    <rect x="144.00" y="108.00" width="18.00" height="18.00" stroke="black" stroke-width="0.2" stroke-linecap="butt" fill="black"/>
    <rect x="180.00" y="108.00" width="18.00" height="18.00" stroke="black" stroke-width="0.2" stroke-linecap="butt" fill="black"/>
    <rect x="216.00" y="108.00" width="18.00" height="18.00" stroke="black" stroke-width="0.2" stroke-linecap="butt" fill="black"/>
    <rect x="252.00" y="108.00" width="18.00" height="18.00" stroke="black" stroke-width="0.2" stroke-linecap="butt" fill="black"/>
    <rect x="288.00" y="108.00" width="18.00" height="18.00" stroke="black" stroke-width="0.2" stroke-linecap="butt" fill="black"/>
    <rect x="324.00" y="108.00" width="18.00" height="18.00" stroke="black" stroke-width="0.2" stroke-linecap="butt" fill="black"/>
    <rect x="342.00" y="108.00" width="18.00" height="18.00" stroke="black" stroke-width="0.2" stroke-linecap="butt" fill="black"/>
    <rect x="360.00" y="108.00" width="18.00" height="18.00" stroke="black" stroke-width="0.2" stroke-linecap="butt" fill="black"/>
    <rect x="378.00" y="108.00" width="18.00" height="18.00" stroke="black" stroke-width="0.2" stroke-linecap="butt" fill="black"/>
    <rect x="396.00" y="108.00" width="18.00" height="18.00" stroke="black" stroke-width="0.2" stroke-linecap="butt" fill="black"/>
    <rect x="414.00" y="108.00" width="18.00" height="18.00" stroke="black" stroke-width="0.2" stroke-linecap="butt" fill="black"/>
    <rect x="432.00" y="108.00" width="18.00" height="18.00" stroke="black" stroke-width="0.2" stroke-linecap="butt" fill="black"/>
    <rect x="162.00" y="126.00" width="18.00" height="18.00" stroke="black" stroke-width="0.2" stroke-linecap="butt" fill="black"/>
    <rect x="198.00" y="126.00" width="18.00" height="18.00" stroke="black" stroke-width="0.2" stroke-linecap="butt" fill="black"/>
    <rect x="234.00" y="126.00" width="18.00" height="18.00" stroke="black" stroke-width="0.2" stroke-linecap="butt" fill="black"/>
    <rect x="0.00" y="144.00" width="18.00" height="18.00" stroke="black" stroke-width="0.2" stroke-linecap="butt" fill="black"/>
    <rect x="18.00" y="144.00" width="18.00" height="18.00" stroke="black" stroke-width="0.2" stroke-linecap="butt" fill="black"/>
    <rect x="72.00" y="144.00" width="18.00" height="18.00" stroke="black" stroke-width="0.2" stroke-linecap="butt" fill="black"/>
    <rect x="90.00" y="144.00" width="18.00" height="18.00" stroke="black" stroke-width="0.2" stroke-linecap="butt" fill="black"/>
    <rect x="108.00" y="144.00" width="18.00" height="18.00" stroke="black" stroke-width="0.2" stroke-linecap="butt" fill="black"/>
    <rect x="126.00" y="144.00" width="18.00" height="18.00" stroke="black" stroke-width="0.2" stroke-linecap="butt" fill="black"/>
    <rect x="144.00" y="144.00" width="18.00" height="18.00" stroke="black" stroke-width="0.2" stroke-linecap="butt" fill="black"/>
    <rect x="162.00" y="144.00" width="18.00" height="18.00" stroke="black" stroke-width="0.2" stroke-linecap="butt" fill="black"/>
    <rect x="198.00" y="144.00" width="18.00" height="18.00" stroke="black" stroke-width="0.2" stroke-linecap="butt" fill="black"/>
    <rect x="252.00" y="144.00" width="18.00" height="18.00" stroke="black" stroke-width="0.2" stroke-linecap="butt" fill="black"/>
    <rect x="270.00" y="144.00" width="18.00" height="18.00" stroke="black" stroke-width="0.2" stroke-linecap="butt" fill="black"/>
    <rect x="288.00" y="144.00" width="18.00" height="18.00" stroke="black" stroke-width="0.2" stroke-linecap="butt" fill="black"/>
    <rect x="306.00" y="144.00" width="18.00" height="18.00" stroke="black" stroke-width="0.2" stroke-linecap="butt" fill="black"/>
    <rect x="342.00" y="144.00" width="18.00" height="18.00" stroke="black" stroke-width="0.2" stroke-linecap="butt" fill="black"/>
    <rect x="396.00" y="144.00" width="18.00" height="18.00" stroke="black" stroke-width="0.2" stroke-linecap="butt" fill="black"/>
    <rect x="414.00" y="144.00" width="18.00" height="18.00" stroke="black" stroke-width="0.2" stroke-linecap="butt" fill="black"/>
    <rect x="432.00" y="144.00" width="18.00" height="18.00" stroke="black" stroke-width="0.2" stroke-linecap="butt" fill="black"/>
    <rect x="0.00" y="162.00" width="18.00" height="18.00" stroke="black" stroke-width="0.2" stroke-linecap="butt" fill="black"/>
    <rect x="36.00" y="162.00" width="18.00" height="18.00" stroke="black" stroke-width="0.2" stroke-linecap="butt" fill="black"/>
    <rect x="90.00" y="162.00" width="18.00" height="18.00" stroke="black" stroke-width="0.2" stroke-linecap="butt" fill="black"/>
    <rect x="126.00" y="162.00" width="18.00" height="18.00" stroke="black" stroke-width="0.2" stroke-linecap="butt" fill="black"/>
    <rect x="144.00" y="162.00" width="18.00" height="18.00" stroke="black" stroke-width="0.2" stroke-linecap="butt" fill="black"/>
    <rect x="180.00" y="162.00" width="18.00" height="18.00" stroke="black" stroke-width="0.2" stroke-linecap="butt" fill="black"/>
    <rect x="216.00" y="162.00" width="18.00" height="18.00" stroke="black" stroke-width="0.2" stroke-linecap="butt" fill="black"/>
    <rect x="252.00" y="162.00" width="18.00" height="18.00" stroke="black" stroke-width="0.2" stroke-linecap="butt" fill="black"/>
    <rect x="306.00" y="162.00" width="18.00" height="18.00" stroke="black" stroke-width="0.2" stroke-linecap="butt" fill="black"/>
    <rect x="324.00" y="162.00" width="18.00" height="18.00" stroke="black" stroke-width="0.2" stroke-linecap="butt" fill="black"/>
    <rect x="342.00" y="162.00" width="18.00" height="18.00" stroke="black" stroke-width="0.2" stroke-linecap="butt" fill="black"/>
    <rect x="360.00" y="162.00" width="18.00" height="18.00" stroke="black" stroke-width="0.2" stroke-linecap="butt" fill="black"/>
    <rect x="396.00" y="162.00" width="18.00" height="18.00" stroke="black" stroke-width="0.2" stroke-linecap="butt" fill="black"/>
    <rect x="414.00" y="162.00" width="18.00" height="18.00" stroke="black" stroke-width="0.2" stroke-linecap="butt" fill="black"/>
    <rect x="0.00" y="180.00" width="18.00" height="18.00" stroke="black" stroke-width="0.2" stroke-linecap="butt" fill="black"/>
    <rect x="90.00" y="180.00" width="18.00" height="18.00" stroke="black" stroke-width="0.2" stroke-linecap="butt" fill="black"/>
    <rect x="108.00" y="180.00" width="18.00" height="18.00" stroke="black" stroke-width="0.2" stroke-linecap="butt" fill="black"/>
    <rect x="180.00" y="180.00" width="18.00" height="18.00" stroke="black" stroke-width="0.2" stroke-linecap="butt" fill="black"/>
    <rect x="198.00" y="180.00" width="18.00" height="18.00" stroke="black" stroke-width="0.2" stroke-linecap="butt" fill="black"/>
    <rect x="216.00" y="180.00" width="18.00" height="18.00" stroke="black" stroke-width="0.2" stroke-linecap="butt" fill="black"/>
    <rect x="234.00" y="180.00" width="18.00" height="18.00" stroke="black" stroke-width="0.2" stroke-linecap="butt" fill="black"/>
    <rect x="252.00" y="180.00" width="18.00" height="18.00" stroke="black" stroke-width="0.2" stroke-linecap="butt" fill="black"/>
    <rect x="270.00" y="180.00" width="18.00" height="18.00" stroke="black" stroke-width="0.2" stroke-linecap="butt" fill="black"/>
    <rect x="306.00" y="180.00" width="18.00" height="18.00" stroke="black" stroke-width="0.2" stroke-linecap="butt" fill="black"/>
    <rect x="342.00" y="180.00" width="18.00" height="18.00" stroke="black" stroke-width="0.2" stroke-linecap="butt" fill="black"/>
    <rect x="378.00" y="180.00" width="18.00" height="18.00" stroke="black" stroke-width="0.2" stroke-linecap="butt" fill="black"/>
    <rect x="396.00" y="180.00" width="18.00" height="18.00" stroke="black" stroke-width="0.2" stroke-linecap="butt" fill="black"/>
    <rect x="414.00" y="180.00" width="18.00" height="18.00" stroke="black" stroke-width="0.2" stroke-linecap="butt" fill="black"/>
    <rect x="0.00" y="198.00" width="18.00" height="18.00" stroke="black" stroke-width="0.2" stroke-linecap="butt" fill="black"/>
    <rect x="18.00" y="198.00" width="18.00" height="18.00" stroke="black" stroke-width="0.2" stroke-linecap="butt" fill="black"/>
    <rect x="54.00" y="198.00" width="18.00" height="18.00" stroke="black" stroke-width="0.2" stroke-linecap="butt" fill="black"/>
    <rect x="72.00" y="198.00" width="18.00" height="18.00" stroke="black" stroke-width="0.2" stroke-linecap="butt" fill="black"/>
    <rect x="144.00" y="198.00" width="18.00" height="18.00" stroke="black" stroke-width="0.2" stroke-linecap="butt" fill="black"/>
    <rect x="180.00" y="198.00" width="18.00" height="18.00" stroke="black" stroke-width="0.2" stroke-linecap="butt" fill="black"/>
    <rect x="198.00" y="198.00" width="18.00" height="18.00" stroke="black" stroke-width="0.2" stroke-linecap="butt" fill="black"/>
    <rect x="216.00" y="198.00" width="18.00" height="18.00" stroke="black" stroke-width="0.2" stroke-linecap="butt" fill="black"/>
    <rect x="234.00" y="198.00" width="18.00" height="18.00" stroke="black" stroke-width="0.2" stroke-linecap="butt" fill="black"/>
    <rect x="252.00" y="198.00" width="18.00" height="18.00" stroke="black" stroke-width="0.2" stroke-linecap="butt" fill="black"/>
    <rect x="270.00" y="198.00" width="18.00" height="18.00" stroke="black" stroke-width="0.2" stroke-linecap="butt" fill="black"/>
    <rect x="306.00" y="198.00" width="18.00" height="18.00" stroke="black" stroke-width="0.2" stroke-linecap="butt" fill="black"/>
    <rect x="324.00" y="198.00" width="18.00" height="18.00" stroke="black" stroke-width="0.2" stroke-linecap="butt" fill="black"/>
    <rect x="378.00" y="198.00" width="18.00" height="18.00" stroke="black" stroke-width="0.2" stroke-linecap="butt" fill="black"/>
    <rect x="396.00" y="198.00" width="18.00" height="18.00" stroke="black" stroke-width="0.2" stroke-linecap="butt" fill="black"/>
    <rect x="72.00" y="216.00" width="18.00" height="18.00" stroke="black" stroke-width="0.2" stroke-linecap="butt" fill="black"/>
    <rect x="108.00" y="216.00" width="18.00" height="18.00" stroke="black" stroke-width="0.2" stroke-linecap="butt" fill="black"/>
    <rect x="144.00" y="216.00" width="18.00" height="18.00" stroke="black" stroke-width="0.2" stroke-linecap="butt" fill="black"/>
    <rect x="198.00" y="216.00" width="18.00" height="18.00" stroke="black" stroke-width="0.2" stroke-linecap="butt" fill="black"/>
    <rect x="216.00" y="216.00" width="18.00" height="18.00" stroke="black" stroke-width="0.2" stroke-linecap="butt" fill="black"/>
    <rect x="234.00" y="216.00" width="18.00" height="18.00" stroke="black" stroke-width="0.2" stroke-linecap="butt" fill="black"/>
    <rect x="252.00" y="216.00" width="18.00" height="18.00" stroke="black" stroke-width="0.2" stroke-linecap="butt" fill="black"/>
    <rect x="270.00" y="216.00" width="18.00" height="18.00" stroke="black" stroke-width="0.2" stroke-linecap="butt" fill="black"/>
    <rect x="288.00" y="216.00" width="18.00" height="18.00" stroke="black" stroke-width="0.2" stroke-linecap="butt" fill="black"/>
    <rect x="306.00" y="216.00" width="18.00" height="18.00" stroke="black" stroke-width="0.2" stroke-linecap="butt" fill="black"/>
    <rect x="360.00" y="216.00" width="18.00" height="18.00" stroke="black" stroke-width="0.2" stroke-linecap="butt" fill="black"/>
    <rect x="378.00" y="216.00" width="18.00" height="18.00" stroke="black" stroke-width="0.2" stroke-linecap="butt" fill="black"/>
    <rect x="396.00" y="216.00" width="18.00" height="18.00" stroke="black" stroke-width="0.2" stroke-linecap="butt" fill="black"/>
    <rect x="414.00" y="216.00" width="18.00" height="18.00" stroke="black" stroke-width="0.2" stroke-linecap="butt" fill="black"/>
    <rect x="432.00" y="216.00" width="18.00" height="18.00" stroke="black" stroke-width="0.2" stroke-linecap="butt" fill="black"/>
    <rect x="18.00" y="234.00" width="18.00" height="18.00" stroke="black" stroke-width="0.2" stroke-linecap="butt" fill="black"/>
    <rect x="36.00" y="234.00" width="18.00" height="18.00" stroke="black" stroke-width="0.2" stroke-linecap="butt" fill="black"/>
    <rect x="54.00" y="234.00" width="18.00" height="18.00" stroke="black" stroke-width="0.2" stroke-linecap="butt" fill="black"/>
    <rect x="72.00" y="234.00" width="18.00" height="18.00" stroke="black" stroke-width="0.2" stroke-linecap="butt" fill="black"/>
    <rect x="306.00" y="234.00" width="18.00" height="18.00" stroke="black" stroke-width="0.2" stroke-linecap="butt" fill="black"/>
    <rect x="378.00" y="234.00" width="18.00" height="18.00" stroke="black" stroke-width="0.2" stroke-linecap="butt" fill="black"/>
    <rect x="396.00" y="234.00" width="18.00" height="18.00" stroke="black" stroke-width="0.2" stroke-linecap="butt" fill="black"/>
    <rect x="0.00" y="252.00" width="18.00" height="18.00" stroke="black" stroke-width="0.2" stroke-linecap="butt" fill="black"/>
    <rect x="18.00" y="252.00" width="18.00" height="18.00" stroke="black" stroke-width="0.2" stroke-linecap="butt" fill="black"/>
    <rect x="54.00" y="252.00" width="18.00" height="18.00" stroke="black" stroke-width="0.2" stroke-linecap="butt" fill="black"/>
    <rect x="72.00" y="252.00" width="18.00" height="18.00" stroke="black" stroke-width="0.2" stroke-linecap="butt" fill="black"/>
    <rect x="90.00" y="252.00" width="18.00" height="18.00" stroke="black" stroke-width="0.2" stroke-linecap="butt" fill="black"/>
    <rect x="108.00" y="252.00" width="18.00" height="18.00" stroke="black" stroke-width="0.2" stroke-linecap="butt" fill="black"/>
    <rect x="162.00" y="252.00" width="18.00" height="18.00" stroke="black" stroke-width="0.2" stroke-linecap="butt" fill="black"/>
    <rect x="180.00" y="252.00" width="18.00" height="18.00" stroke="black" stroke-width="0.2" stroke-linecap="butt" fill="black"/>
    <rect x="252.00" y="252.00" width="18.00" height="18.00" stroke="black" stroke-width="0.2" stroke-linecap="butt" fill="black"/>
    <rect x="270.00" y="252.00" width="18.00" height="18.00" stroke="black" stroke-width="0.2" stroke-linecap="butt" fill="black"/>
    <rect x="342.00" y="252.00" width="18.00" height="18.00" stroke="black" stroke-width="0.2" stroke-linecap="butt" fill="black"/>
    <rect x="36.00" y="270.00" width="18.00" height="18.00" stroke="black" stroke-width="0.2" stroke-linecap="butt" fill="black"/>
    <rect x="54.00" y="270.00" width="18.00" height="18.00" stroke="black" stroke-width="0.2" stroke-linecap="butt" fill="black"/>
    <rect x="126.00" y="270.00" width="18.00" height="18.00" stroke="black" stroke-width="0.2" stroke-linecap="butt" fill="black"/>
    <rect x="162.00" y="270.00" width="18.00" height="18.00" stroke="black" stroke-width="0.2" stroke-linecap="butt" fill="black"/>
    <rect x="180.00" y="270.00" width="18.00" height="18.00" stroke="black" stroke-width="0.2" stroke-linecap="butt" fill="black"/>
    <rect x="198.00" y="270.00" width="18.00" height="18.00" stroke="black" stroke-width="0.2" stroke-linecap="butt" fill="black"/>
    <rect x="216.00" y="270.00" width="18.00" height="18.00" stroke="black" stroke-width="0.2" stroke-linecap="butt" fill="black"/>
    <rect x="234.00" y="270.00" width="18.00" height="18.00" stroke="black" stroke-width="0.2" stroke-linecap="butt" fill="black"/>
    <rect x="252.00" y="270.00" width="18.00" height="18.00" stroke="black" stroke-width="0.2" stroke-linecap="butt" fill="black"/>
    <rect x="270.00" y="270.00" width="18.00" height="18.00" stroke="black" stroke-width="0.2" stroke-linecap="butt" fill="black"/>
    <rect x="360.00" y="270.00" width="18.00" height="18.00" stroke="black" stroke-width="0.2" stroke-linecap="butt" fill="black"/>
    <rect x="414.00" y="270.00" width="18.00" height="18.00" stroke="black" stroke-width="0.2" stroke-linecap="butt" fill="black"/>
    <rect x="0.00" y="288.00" width="18.00" height="18.00" stroke="black" stroke-width="0.2" stroke-linecap="butt" fill="black"/>
    <rect x="18.00" y="288.00" width="18.00" height="18.00" stroke="black" stroke-width="0.2" stroke-linecap="butt" fill="black"/>
    <rect x="90.00" y="288.00" width="18.00" height="18.00" stroke="black" stroke-width="0.2" stroke-linecap="butt" fill="black"/>
    <rect x="108.00" y="288.00" width="18.00" height="18.00" stroke="black" stroke-width="0.2" stroke-linecap="butt" fill="black"/>
    <rect x="126.00" y="288.00" width="18.00" height="18.00" stroke="black" stroke-width="0.2" stroke-linecap="butt" fill="black"/>
    <rect x="144.00" y="288.00" width="18.00" height="18.00" stroke="black" stroke-width="0.2" stroke-linecap="butt" fill="black"/>
    <rect x="162.00" y="288.00" width="18.00" height="18.00" stroke="black" stroke-width="0.2" stroke-linecap="butt" fill="black"/>
    <rect x="216.00" y="288.00" width="18.00" height="18.00" stroke="black" stroke-width="0.2" stroke-linecap="butt" fill="black"/>
    <rect x="234.00" y="288.00" width="18.00" height="18.00" stroke="black" stroke-width="0.2" stroke-linecap="butt" fill="black"/>
    <rect x="252.00" y="288.00" width="18.00" height="18.00" stroke="black" stroke-width="0.2" stroke-linecap="butt" fill="black"/>
    <rect x="270.00" y="288.00" width="18.00" height="18.00" stroke="black" stroke-width="0.2" stroke-linecap="butt" fill="black"/>
    <rect x="288.00" y="288.00" width="18.00" height="18.00" stroke="black" stroke-width="0.2" stroke-linecap="butt" fill="black"/>
    <rect x="306.00" y="288.00" width="18.00" height="18.00" stroke="black" stroke-width="0.2" stroke-linecap="butt" fill="black"/>
    <rect x="324.00" y="288.00" width="18.00" height="18.00" stroke="black" stroke-width="0.2" stroke-linecap="butt" fill="black"/>
    <rect x="342.00" y="288.00" width="18.00" height="18.00" stroke="black" stroke-width="0.2" stroke-linecap="butt" fill="black"/>
    <rect x="360.00" y="288.00" width="18.00" height="18.00" stroke="black" stroke-width="0.2" stroke-linecap="butt" fill="black"/>
    <rect x="378.00" y="288.00" width="18.00" height="18.00" stroke="black" stroke-width="0.2" stroke-linecap="butt" fill="black"/>
    <rect x="396.00" y="288.00" width="18.00" height="18.00" stroke="black" stroke-width="0.2" stroke-linecap="butt" fill="black"/>
    <rect x="414.00" y="288.00" width="18.00" height="18.00" stroke="black" stroke-width="0.2" stroke-linecap="butt" fill="black"/>
    <rect x="432.00" y="288.00" width="18.00" height="18.00" stroke="black" stroke-width="0.2" stroke-linecap="butt" fill="black"/>
    <rect x="144.00" y="306.00" width="18.00" height="18.00" stroke="black" stroke-width="0.2" stroke-linecap="butt" fill="black"/>
    <rect x="288.00" y="306.00" width="18.00" height="18.00" stroke="black" stroke-width="0.2" stroke-linecap="butt" fill="black"/>
    <rect x="360.00" y="306.00" width="18.00" height="18.00" stroke="black" stroke-width="0.2" stroke-linecap="butt" fill="black"/>
    <rect x="378.00" y="306.00" width="18.00" height="18.00" stroke="black" stroke-width="0.2" stroke-linecap="butt" fill="black"/>
    <rect x="396.00" y="306.00" width="18.00" height="18.00" stroke="black" stroke-width="0.2" stroke-linecap="butt" fill="black"/>
    <rect x="414.00" y="306.00" width="18.00" height="18.00" stroke="black" stroke-width="0.2" stroke-linecap="butt" fill="black"/>
    <rect x="0.00" y="324.00" width="18.00" height="18.00" stroke="black" stroke-width="0.2" stroke-linecap="butt" fill="black"/>
    <rect x="18.00" y="324.00" width="18.00" height="18.00" stroke="black" stroke-width="0.2" stroke-linecap="butt" fill="black"/>
    <rect x="36.00" y="324.00" width="18.00" height="18.00" stroke="black" stroke-width="0.2" stroke-linecap="butt" fill="black"/>
    <rect x="54.00" y="324.00" width="18.00" height="18.00" stroke="black" stroke-width="0.2" stroke-linecap="butt" fill="black"/>
    <rect x="72.00" y="324.00" width="18.00" height="18.00" stroke="black" stroke-width="0.2" stroke-linecap="butt" fill="black"/>
    <rect x="90.00" y="324.00" width="18.00" height="18.00" stroke="black" stroke-width="0.2" stroke-linecap="butt" fill="black"/>
    <rect x="108.00" y="324.00" width="18.00" height="18.00" stroke="black" stroke-width="0.2" stroke-linecap="butt" fill="black"/>
    <rect x="144.00" y="324.00" width="18.00" height="18.00" stroke="black" stroke-width="0.2" stroke-linecap="butt" fill="black"/>
    <rect x="162.00" y="324.00" width="18.00" height="18.00" stroke="black" stroke-width="0.2" stroke-linecap="butt" fill="black"/>
    <rect x="216.00" y="324.00" width="18.00" height="18.00" stroke="black" stroke-width="0.2" stroke-linecap="butt" fill="black"/>
    <rect x="234.00" y="324.00" width="18.00" height="18.00" stroke="black" stroke-width="0.2" stroke-linecap="butt" fill="black"/>
    <rect x="288.00" y="324.00" width="18.00" height="18.00" stroke="black" stroke-width="0.2" stroke-linecap="butt" fill="black"/>
    <rect x="324.00" y="324.00" width="18.00" height="18.00" stroke="black" stroke-width="0.2" stroke-linecap="butt" fill="black"/>
    <rect x="360.00" y="324.00" width="18.00" height="18.00" stroke="black" stroke-width="0.2" stroke-linecap="butt" fill="black"/>
    <rect x="396.00" y="324.00" width="18.00" height="18.00" stroke="black" stroke-width="0.2" stroke-linecap="butt" fill="black"/>
    <rect x="432.00" y="324.00" width="18.00" height="18.00" stroke="black" stroke-width="0.2" stroke-linecap="butt" fill="black"/>
    <rect x="0.00" y="342.00" width="18.00" height="18.00" stroke="black" stroke-width="0.2" stroke-linecap="butt" fill="black"/>
    <rect x="108.00" y="342.00" width="18.00" height="18.00" stroke="black" stroke-width="0.2" stroke-linecap="butt" fill="black"/>
    <rect x="144.00" y="342.00" width="18.00" height="18.00" stroke="black" stroke-width="0.2" stroke-linecap="butt" fill="black"/>
    <rect x="162.00" y="342.00" width="18.00" height="18.00" stroke="black" stroke-width="0.2" stroke-linecap="butt" fill="black"/>
    <rect x="198.00" y="342.00" width="18.00" height="18.00" stroke="black" stroke-width="0.2" stroke-linecap="butt" fill="black"/>
    <rect x="216.00" y="342.00" width="18.00" height="18.00" stroke="black" stroke-width="0.2" stroke-linecap="butt" fill="black"/>
    <rect x="234.00" y="342.00" width="18.00" height="18.00" stroke="black" stroke-width="0.2" stroke-linecap="butt" fill="black"/>
    <rect x="252.00" y="342.00" width="18.00" height="18.00" stroke="black" stroke-width="0.2" stroke-linecap="butt" fill="black"/>
    <rect x="288.00" y="342.00" width="18.00" height="18.00" stroke="black" stroke-width="0.2" stroke-linecap="butt" fill="black"/>
    <rect x="360.00" y="342.00" width="18.00" height="18.00" stroke="black" stroke-width="0.2" stroke-linecap="butt" fill="black"/>
    <rect x="378.00" y="342.00" width="18.00" height="18.00" stroke="black" stroke-width="0.2" stroke-linecap="butt" fill="black"/>
    <rect x="414.00" y="342.00" width="18.00" height="18.00" stroke="black" stroke-width="0.2" stroke-linecap="butt" fill="black"/>
    <rect x="0.00" y="360.00" width="18.00" height="18.00" stroke="black" stroke-width="0.2" stroke-linecap="butt" fill="black"/>
    <rect x="36.00" y="360.00" width="18.00" height="18.00" stroke="black" stroke-width="0.2" stroke-linecap="butt" fill="black"/>
    <rect x="54.00" y="360.00" width="18.00" height="18.00" stroke="black" stroke-width="0.2" stroke-linecap="butt" fill="black"/>
    <rect x="72.00" y="360.00" width="18.00" height="18.00" stroke="black" stroke-width="0.2" stroke-linecap="butt" fill="black"/>
    <rect x="108.00" y="360.00" width="18.00" height="18.00" stroke="black" stroke-width="0.2" stroke-linecap="butt" fill="black"/>
    <rect x="144.00" y="360.00" width="18.00" height="18.00" stroke="black" stroke-width="0.2" stroke-linecap="butt" fill="black"/>
    <rect x="198.00" y="360.00" width="18.00" height="18.00" stroke="black" stroke-width="0.2" stroke-linecap="butt" fill="black"/>
    <rect x="252.00" y="360.00" width="18.00" height="18.00" stroke="black" stroke-width="0.2" stroke-linecap="butt" fill="black"/>
    <rect x="288.00" y="360.00" width="18.00" height="18.00" stroke="black" stroke-width="0.2" stroke-linecap="butt" fill="black"/>
    <rect x="306.00" y="360.00" width="18.00" height="18.00" stroke="black" stroke-width="0.2" stroke-linecap="butt" fill="black"/>
    <rect x="324.00" y="360.00" width="18.00" height="18.00" stroke="black" stroke-width="0.2" stroke-linecap="butt" fill="black"/>
    <rect x="342.00" y="360.00" width="18.00" height="18.00" stroke="black" stroke-width="0.2" stroke-linecap="butt" fill="black"/>
    <rect x="360.00" y="360.00" width="18.00" height="18.00" stroke="black" stroke-width="0.2" stroke-linecap="butt" fill="black"/>
    <rect x="396.00" y="360.00" width="18.00" height="18.00" stroke="black" stroke-width="0.2" stroke-linecap="butt" fill="black"/>
    <rect x="414.00" y="360.00" width="18.00" height="18.00" stroke="black" stroke-width="0.2" stroke-linecap="butt" fill="black"/>
    <rect x="0.00" y="378.00" width="18.00" height="18.00" stroke="black" stroke-width="0.2" stroke-linecap="butt" fill="black"/>
    <rect x="36.00" y="378.00" width="18.00" height="18.00" stroke="black" stroke-width="0.2" stroke-linecap="butt" fill="black"/>
    <rect x="54.00" y="378.00" width="18.00" height="18.00" stroke="black" stroke-width="0.2" stroke-linecap="butt" fill="black"/>
    <rect x="72.00" y="378.00" width="18.00" height="18.00" stroke="black" stroke-width="0.2" stroke-linecap="butt" fill="black"/>
    <rect x="108.00" y="378.00" width="18.00" height="18.00" stroke="black" stroke-width="0.2" stroke-linecap="butt" fill="black"/>
    <rect x="162.00" y="378.00" width="18.00" height="18.00" stroke="black" stroke-width="0.2" stroke-linecap="butt" fill="black"/>
    <rect x="180.00" y="378.00" width="18.00" height="18.00" stroke="black" stroke-width="0.2" stroke-linecap="butt" fill="black"/>
    <rect x="198.00" y="378.00" width="18.00" height="18.00" stroke="black" stroke-width="0.2" stroke-linecap="butt" fill="black"/>
    <rect x="252.00" y="378.00" width="18.00" height="18.00" stroke="black" stroke-width="0.2" stroke-linecap="butt" fill="black"/>
    <rect x="324.00" y="378.00" width="18.00" height="18.00" stroke="black" stroke-width="0.2" stroke-linecap="butt" fill="black"/>
    <rect x="360.00" y="378.00" width="18.00" height="18.00" stroke="black" stroke-width="0.2" stroke-linecap="butt" fill="black"/>
    <rect x="378.00" y="378.00" width="18.00" height="18.00" stroke="black" stroke-width="0.2" stroke-linecap="butt" fill="black"/>
    <rect x="432.00" y="378.00" width="18.00" height="18.00" stroke="black" stroke-width="0.2" stroke-linecap="butt" fill="black"/>
    <rect x="0.00" y="396.00" width="18.00" height="18.00" stroke="black" stroke-width="0.2" stroke-linecap="butt" fill="black"/>
    <rect x="36.00" y="396.00" width="18.00" height="18.00" stroke="black" stroke-width="0.2" stroke-linecap="butt" fill="black"/>
    <rect x="54.00" y="396.00" width="18.00" height="18.00" stroke="black" stroke-width="0.2" stroke-linecap="butt" fill="black"/>
    <rect x="72.00" y="396.00" width="18.00" height="18.00" stroke="black" stroke-width="0.2" stroke-linecap="butt" fill="black"/>
    <rect x="108.00" y="396.00" width="18.00" height="18.00" stroke="black" stroke-width="0.2" stroke-linecap="butt" fill="black"/>
    <rect x="180.00" y="396.00" width="18.00" height="18.00" stroke="black" stroke-width="0.2" stroke-linecap="butt" fill="black"/>
    <rect x="252.00" y="396.00" width="18.00" height="18.00" stroke="black" stroke-width="0.2" stroke-linecap="butt" fill="black"/>
    <rect x="306.00" y="396.00" width="18.00" height="18.00" stroke="black" stroke-width="0.2" stroke-linecap="butt" fill="black"/>
    <rect x="378.00" y="396.00" width="18.00" height="18.00" stroke="black" stroke-width="0.2" stroke-linecap="butt" fill="black"/>
    <rect x="0.00" y="414.00" width="18.00" height="18.00" stroke="black" stroke-width="0.2" stroke-linecap="butt" fill="black"/>
    <rect x="108.00" y="414.00" width="18.00" height="18.00" stroke="black" stroke-width="0.2" stroke-linecap="butt" fill="black"/>
    <rect x="144.00" y="414.00" width="18.00" height="18.00" stroke="black" stroke-width="0.2" stroke-linecap="butt" fill="black"/>
    <rect x="162.00" y="414.00" width="18.00" height="18.00" stroke="black" stroke-width="0.2" stroke-linecap="butt" fill="black"/>
    <rect x="234.00" y="414.00" width="18.00" height="18.00" stroke="black" stroke-width="0.2" stroke-linecap="butt" fill="black"/>
    <rect x="288.00" y="414.00" width="18.00" height="18.00" stroke="black" stroke-width="0.2" stroke-linecap="butt" fill="black"/>
    <rect x="342.00" y="414.00" width="18.00" height="18.00" stroke="black" stroke-width="0.2" stroke-linecap="butt" fill="black"/>
    <rect x="360.00" y="414.00" width="18.00" height="18.00" stroke="black" stroke-width="0.2" stroke-linecap="butt" fill="black"/>
    <rect x="378.00" y="414.00" width="18.00" height="18.00" stroke="black" stroke-width="0.2" stroke-linecap="butt" fill="black"/>
    <rect x="396.00" y="414.00" width="18.00" height="18.00" stroke="black" stroke-width="0.2" stroke-linecap="butt" fill="black"/>
    <rect x="0.00" y="432.00" width="18.00" height="18.00" stroke="black" stroke-width="0.2" stroke-linecap="butt" fill="black"/>
    <rect x="18.00" y="432.00" width="18.00" height="18.00" stroke="black" stroke-width="0.2" stroke-linecap="butt" fill="black"/>
    <rect x="36.00" y="432.00" width="18.00" height="18.00" stroke="black" stroke-width="0.2" stroke-linecap="butt" fill="black"/>
    <rect x="54.00" y="432.00" width="18.00" height="18.00" stroke="black" stroke-width="0.2" stroke-linecap="butt" fill="black"/>
    <rect x="72.00" y="432.00" width="18.00" height="18.00" stroke="black" stroke-width="0.2" stroke-linecap="butt" fill="black"/>
    <rect x="90.00" y="432.00" width="18.00" height="18.00" stroke="black" stroke-width="0.2" stroke-linecap="butt" fill="black"/>
    <rect x="108.00" y="432.00" width="18.00" height="18.00" stroke="black" stroke-width="0.2" stroke-linecap="butt" fill="black"/>
    <rect x="144.00" y="432.00" width="18.00" height="18.00" stroke="black" stroke-width="0.2" stroke-linecap="butt" fill="black"/>
    <rect x="162.00" y="432.00" width="18.00" height="18.00" stroke="black" stroke-width="0.2" stroke-linecap="butt" fill="black"/>
    <rect x="180.00" y="432.00" width="18.00" height="18.00" stroke="black" stroke-width="0.2" stroke-linecap="butt" fill="black"/>
    <rect x="216.00" y="432.00" width="18.00" height="18.00" stroke="black" stroke-width="0.2" stroke-linecap="butt" fill="black"/>
    <rect x="234.00" y="432.00" width="18.00" height="18.00" stroke="black" stroke-width="0.2" stroke-linecap="butt" fill="black"/>
    <rect x="252.00" y="432.00" width="18.00" height="18.00" stroke="black" stroke-width="0.2" stroke-linecap="butt" fill="black"/>
    <rect x="306.00" y="432.00" width="18.00" height="18.00" stroke="black" stroke-width="0.2" stroke-linecap="butt" fill="black"/>
    <rect x="324.00" y="432.00" width="18.00" height="18.00" stroke="black" stroke-width="0.2" stroke-linecap="butt" fill="black"/>
    <rect x="342.00" y="432.00" width="18.00" height="18.00" stroke="black" stroke-width="0.2" stroke-linecap="butt" fill="black"/>
    <rect x="396.00" y="432.00" width="18.00" height="18.00" stroke="black" stroke-width="0.2" stroke-linecap="butt" fill="black"/>
    <rect x="432.00" y="432.00" width="18.00" height="18.00" stroke="black" stroke-width="0.2" stroke-linecap="butt" fill="black"/>
  </g>
</svg>
